<svg id="visual" viewBox="0 0 1200 800" width="1200" height="800" xmlns="http://www.w3.org/2000/svg" xmlns:xlink="http://www.w3.org/1999/xlink" version="1.1"><path d="M0 41L15.3 41C30.7 41 61.3 41 92.2 41C123 41 154 41 184.8 41C215.7 41 246.3 41 277 39.7C307.7 38.3 338.3 35.7 369.2 34.3C400 33 431 33 461.8 33C492.7 33 523.3 33 554 34.3C584.7 35.7 615.3 38.3 646 38.3C676.7 38.3 707.3 35.7 738.2 34.3C769 33 800 33 830.8 34.3C861.7 35.7 892.3 38.3 923 38.3C953.7 38.3 984.3 35.7 1015.2 34.3C1046 33 1077 33 1107.8 34.3C1138.7 35.7 1169.3 38.3 1184.7 39.7L1200 41L1200 0L1184.7 0C1169.3 0 1138.7 0 1107.8 0C1077 0 1046 0 1015.2 0C984.3 0 953.7 0 923 0C892.3 0 861.7 0 830.8 0C800 0 769 0 738.2 0C707.3 0 676.7 0 646 0C615.3 0 584.7 0 554 0C523.3 0 492.7 0 461.8 0C431 0 400 0 369.2 0C338.3 0 307.7 0 277 0C246.3 0 215.7 0 184.8 0C154 0 123 0 92.2 0C61.3 0 30.7 0 15.3 0L0 0Z" fill="#c7e7f3"></path><path d="M0 97L15.3 95.7C30.7 94.3 61.3 91.7 92.2 90.3C123 89 154 89 184.8 91.7C215.7 94.3 246.3 99.7 277 102.3C307.7 105 338.3 105 369.2 103.7C400 102.3 431 99.7 461.8 95.7C492.7 91.7 523.3 86.3 554 87.7C584.7 89 615.3 97 646 98.3C676.7 99.7 707.3 94.3 738.2 94.3C769 94.3 800 99.7 830.8 103.7C861.7 107.7 892.3 110.3 923 110.3C953.7 110.3 984.3 107.7 1015.2 103.7C1046 99.7 1077 94.3 1107.8 95.7C1138.7 97 1169.3 105 1184.7 109L1200 113L1200 39L1184.7 37.7C1169.3 36.3 1138.7 33.7 1107.8 32.3C1077 31 1046 31 1015.2 32.3C984.3 33.7 953.7 36.3 923 36.3C892.3 36.3 861.7 33.7 830.8 32.3C800 31 769 31 738.2 32.3C707.3 33.7 676.7 36.3 646 36.3C615.3 36.3 584.7 33.7 554 32.3C523.3 31 492.7 31 461.8 31C431 31 400 31 369.2 32.3C338.3 33.7 307.7 36.3 277 37.7C246.3 39 215.7 39 184.8 39C154 39 123 39 92.2 39C61.3 39 30.7 39 15.3 39L0 39Z" fill="#b9e1f0"></path><path d="M0 193L15.3 195.7C30.7 198.3 61.3 203.7 92.2 203.7C123 203.7 154 198.3 184.8 198.3C215.7 198.3 246.3 203.7 277 202.3C307.7 201 338.3 193 369.2 189C400 185 431 185 461.8 183.7C492.7 182.3 523.3 179.7 554 179.7C584.7 179.7 615.3 182.3 646 182.3C676.7 182.3 707.3 179.7 738.2 185C769 190.3 800 203.7 830.8 207.7C861.7 211.7 892.3 206.3 923 203.7C953.7 201 984.3 201 1015.2 198.3C1046 195.7 1077 190.3 1107.8 193C1138.7 195.7 1169.3 206.3 1184.7 211.7L1200 217L1200 111L1184.7 107C1169.3 103 1138.7 95 1107.8 93.7C1077 92.3 1046 97.7 1015.2 101.7C984.3 105.7 953.7 108.3 923 108.3C892.3 108.3 861.7 105.7 830.8 101.7C800 97.7 769 92.3 738.2 92.3C707.3 92.3 676.7 97.7 646 96.3C615.3 95 584.7 87 554 85.7C523.3 84.3 492.7 89.7 461.8 93.7C431 97.7 400 100.3 369.2 101.7C338.3 103 307.7 103 277 100.3C246.3 97.7 215.7 92.3 184.8 89.7C154 87 123 87 92.2 88.3C61.3 89.7 30.7 92.3 15.3 93.7L0 95Z" fill="#aadcec"></path><path d="M0 361L15.3 365C30.7 369 61.3 377 92.2 378.3C123 379.7 154 374.3 184.8 369C215.7 363.7 246.3 358.3 277 359.7C307.7 361 338.3 369 369.2 371.7C400 374.3 431 371.7 461.8 367.7C492.7 363.7 523.3 358.3 554 357C584.7 355.7 615.3 358.3 646 351.7C676.7 345 707.3 329 738.2 329C769 329 800 345 830.8 351.7C861.7 358.3 892.3 355.7 923 361C953.7 366.3 984.3 379.7 1015.2 378.3C1046 377 1077 361 1107.8 358.3C1138.7 355.7 1169.3 366.3 1184.7 371.7L1200 377L1200 215L1184.7 209.7C1169.3 204.3 1138.7 193.7 1107.8 191C1077 188.3 1046 193.7 1015.2 196.3C984.3 199 953.7 199 923 201.7C892.3 204.3 861.7 209.7 830.8 205.7C800 201.7 769 188.3 738.2 183C707.3 177.7 676.7 180.3 646 180.3C615.3 180.3 584.7 177.7 554 177.7C523.3 177.7 492.7 180.3 461.8 181.7C431 183 400 183 369.2 187C338.3 191 307.7 199 277 200.3C246.3 201.7 215.7 196.3 184.8 196.3C154 196.3 123 201.7 92.2 201.7C61.3 201.7 30.7 196.3 15.3 193.7L0 191Z" fill="#96cde0"></path><path d="M0 393L15.3 397C30.7 401 61.3 409 92.2 411.7C123 414.3 154 411.7 184.8 407.7C215.7 403.7 246.3 398.3 277 398.3C307.7 398.3 338.3 403.7 369.2 405C400 406.3 431 403.7 461.8 401C492.7 398.3 523.3 395.7 554 395.7C584.7 395.7 615.3 398.3 646 391.7C676.7 385 707.3 369 738.2 367.7C769 366.3 800 379.7 830.8 385C861.7 390.3 892.3 387.7 923 393C953.7 398.3 984.3 411.7 1015.2 411.7C1046 411.7 1077 398.3 1107.8 397C1138.7 395.7 1169.3 406.3 1184.7 411.7L1200 417L1200 375L1184.7 369.7C1169.3 364.3 1138.7 353.7 1107.8 356.3C1077 359 1046 375 1015.2 376.3C984.3 377.7 953.7 364.3 923 359C892.3 353.7 861.7 356.3 830.8 349.7C800 343 769 327 738.2 327C707.3 327 676.7 343 646 349.7C615.3 356.3 584.7 353.7 554 355C523.3 356.3 492.7 361.7 461.8 365.7C431 369.7 400 372.3 369.2 369.7C338.3 367 307.7 359 277 357.7C246.3 356.3 215.7 361.7 184.8 367C154 372.3 123 377.7 92.2 376.3C61.3 375 30.7 367 15.3 363L0 359Z" fill="#82bfd4"></path><path d="M0 561L15.3 559.7C30.7 558.3 61.3 555.7 92.2 557C123 558.3 154 563.7 184.8 562.3C215.7 561 246.3 553 277 549C307.7 545 338.3 545 369.2 545C400 545 431 545 461.8 545C492.7 545 523.3 545 554 543.7C584.7 542.3 615.3 539.7 646 537C676.7 534.3 707.3 531.7 738.2 531.7C769 531.7 800 534.3 830.8 538.3C861.7 542.3 892.3 547.7 923 553C953.7 558.3 984.3 563.7 1015.2 558.3C1046 553 1077 537 1107.8 533C1138.7 529 1169.3 537 1184.7 541L1200 545L1200 415L1184.7 409.7C1169.3 404.3 1138.7 393.7 1107.8 395C1077 396.3 1046 409.7 1015.2 409.7C984.3 409.7 953.7 396.3 923 391C892.3 385.7 861.7 388.3 830.8 383C800 377.7 769 364.3 738.2 365.7C707.3 367 676.7 383 646 389.7C615.3 396.3 584.7 393.7 554 393.7C523.3 393.7 492.7 396.3 461.8 399C431 401.7 400 404.3 369.2 403C338.3 401.7 307.7 396.3 277 396.3C246.3 396.3 215.7 401.7 184.8 405.7C154 409.7 123 412.3 92.2 409.7C61.3 407 30.7 399 15.3 395L0 391Z" fill="#82bfd4"></path><path d="M0 601L15.3 602.3C30.7 603.7 61.3 606.3 92.2 607.7C123 609 154 609 184.8 605C215.7 601 246.3 593 277 590.3C307.7 587.7 338.3 590.3 369.2 593C400 595.7 431 598.3 461.8 598.3C492.7 598.3 523.3 595.7 554 591.7C584.7 587.7 615.3 582.3 646 581C676.7 579.7 707.3 582.3 738.2 585C769 587.7 800 590.3 830.8 593C861.7 595.7 892.3 598.3 923 601C953.7 603.7 984.3 606.3 1015.2 599.7C1046 593 1077 577 1107.8 573C1138.7 569 1169.3 577 1184.7 581L1200 585L1200 543L1184.7 539C1169.3 535 1138.7 527 1107.8 531C1077 535 1046 551 1015.2 556.3C984.3 561.7 953.7 556.3 923 551C892.3 545.7 861.7 540.3 830.8 536.3C800 532.3 769 529.7 738.2 529.7C707.3 529.7 676.7 532.3 646 535C615.3 537.7 584.7 540.3 554 541.7C523.3 543 492.7 543 461.8 543C431 543 400 543 369.2 543C338.3 543 307.7 543 277 547C246.3 551 215.7 559 184.8 560.3C154 561.7 123 556.3 92.2 555C61.3 553.7 30.7 556.3 15.3 557.7L0 559Z" fill="#82bfd4"></path><path d="M0 673L15.3 673C30.7 673 61.3 673 92.2 673C123 673 154 673 184.8 673C215.7 673 246.3 673 277 669C307.7 665 338.3 657 369.2 657C400 657 431 665 461.8 669C492.7 673 523.3 673 554 671.7C584.7 670.3 615.3 667.7 646 667.7C676.7 667.7 707.3 670.3 738.2 670.3C769 670.3 800 667.7 830.8 665C861.7 662.3 892.3 659.7 923 661C953.7 662.3 984.3 667.7 1015.2 666.3C1046 665 1077 657 1107.8 657C1138.7 657 1169.3 665 1184.7 669L1200 673L1200 583L1184.7 579C1169.3 575 1138.7 567 1107.8 571C1077 575 1046 591 1015.2 597.7C984.3 604.3 953.7 601.7 923 599C892.3 596.3 861.7 593.7 830.8 591C800 588.3 769 585.7 738.2 583C707.3 580.3 676.7 577.7 646 579C615.3 580.3 584.7 585.7 554 589.7C523.3 593.7 492.7 596.3 461.8 596.3C431 596.3 400 593.7 369.2 591C338.3 588.3 307.7 585.7 277 588.3C246.3 591 215.7 599 184.8 603C154 607 123 607 92.2 605.7C61.3 604.3 30.7 601.7 15.3 600.3L0 599Z" fill="#96cde0"></path><path d="M0 721L15.3 722.3C30.7 723.7 61.3 726.3 92.2 726.3C123 726.3 154 723.7 184.8 722.3C215.7 721 246.3 721 277 719.7C307.7 718.3 338.3 715.7 369.2 714.3C400 713 431 713 461.8 714.3C492.7 715.7 523.3 718.3 554 721C584.7 723.7 615.3 726.3 646 729C676.7 731.7 707.3 734.3 738.2 731.7C769 729 800 721 830.8 717C861.7 713 892.3 713 923 714.3C953.7 715.7 984.3 718.3 1015.2 718.3C1046 718.3 1077 715.7 1107.8 718.3C1138.7 721 1169.3 729 1184.7 733L1200 737L1200 671L1184.7 667C1169.3 663 1138.7 655 1107.8 655C1077 655 1046 663 1015.2 664.3C984.3 665.7 953.7 660.3 923 659C892.3 657.7 861.7 660.3 830.8 663C800 665.7 769 668.3 738.2 668.3C707.3 668.3 676.7 665.7 646 665.7C615.3 665.7 584.7 668.3 554 669.7C523.3 671 492.7 671 461.8 667C431 663 400 655 369.2 655C338.3 655 307.7 663 277 667C246.3 671 215.7 671 184.8 671C154 671 123 671 92.2 671C61.3 671 30.7 671 15.3 671L0 671Z" fill="#aadcec"></path><path d="M0 753L15.3 754.3C30.7 755.7 61.3 758.3 92.2 758.3C123 758.3 154 755.7 184.8 755.7C215.7 755.7 246.3 758.3 277 758.3C307.7 758.3 338.3 755.7 369.2 754.3C400 753 431 753 461.8 754.3C492.7 755.7 523.3 758.3 554 759.7C584.7 761 615.3 761 646 762.3C676.7 763.7 707.3 766.3 738.2 765C769 763.7 800 758.3 830.8 755.7C861.7 753 892.3 753 923 753C953.7 753 984.3 753 1015.2 753C1046 753 1077 753 1107.8 755.7C1138.7 758.3 1169.3 763.7 1184.7 766.3L1200 769L1200 735L1184.7 731C1169.3 727 1138.7 719 1107.8 716.3C1077 713.7 1046 716.3 1015.2 716.3C984.3 716.3 953.7 713.7 923 712.3C892.3 711 861.7 711 830.8 715C800 719 769 727 738.2 729.7C707.3 732.3 676.7 729.7 646 727C615.3 724.3 584.7 721.7 554 719C523.3 716.3 492.7 713.7 461.8 712.3C431 711 400 711 369.2 712.3C338.3 713.7 307.7 716.3 277 717.7C246.3 719 215.7 719 184.8 720.3C154 721.7 123 724.3 92.2 724.3C61.3 724.3 30.7 721.7 15.3 720.3L0 719Z" fill="#b9e1f0"></path><path d="M0 801L15.3 801C30.7 801 61.3 801 92.2 801C123 801 154 801 184.8 801C215.7 801 246.3 801 277 801C307.7 801 338.3 801 369.2 801C400 801 431 801 461.8 801C492.7 801 523.3 801 554 801C584.7 801 615.3 801 646 801C676.7 801 707.3 801 738.2 801C769 801 800 801 830.8 801C861.7 801 892.3 801 923 801C953.7 801 984.3 801 1015.2 801C1046 801 1077 801 1107.8 801C1138.7 801 1169.3 801 1184.7 801L1200 801L1200 767L1184.7 764.3C1169.3 761.7 1138.7 756.3 1107.8 753.7C1077 751 1046 751 1015.2 751C984.3 751 953.7 751 923 751C892.3 751 861.7 751 830.8 753.7C800 756.3 769 761.7 738.2 763C707.3 764.3 676.7 761.7 646 760.3C615.3 759 584.7 759 554 757.7C523.3 756.3 492.7 753.7 461.8 752.3C431 751 400 751 369.2 752.3C338.3 753.7 307.7 756.3 277 756.3C246.3 756.3 215.7 753.7 184.8 753.7C154 753.7 123 756.3 92.2 756.3C61.3 756.3 30.7 753.7 15.3 752.3L0 751Z" fill="#c7e7f3"></path></svg>