<svg id="visual" viewBox="0 0 1200 900" width="1200" height="900" xmlns="http://www.w3.org/2000/svg" xmlns:xlink="http://www.w3.org/1999/xlink" version="1.1"><path d="M0 869L25 784.7C50 700.3 100 531.7 150 459.2C200 386.7 250 410.3 300 426.3C350 442.3 400 450.7 450 509.2C500 567.7 550 676.3 600 669C650 661.7 700 538.3 750 548.2C800 558 850 701 900 728.7C950 756.3 1000 668.7 1050 638.8C1100 609 1150 637 1175 651L1200 665L1200 901L1175 901C1150 901 1100 901 1050 901C1000 901 950 901 900 901C850 901 800 901 750 901C700 901 650 901 600 901C550 901 500 901 450 901C400 901 350 901 300 901C250 901 200 901 150 901C100 901 50 901 25 901L0 901Z" fill="#f4f9fc"></path><path d="M0 672L25 687.2C50 702.3 100 732.7 150 742.5C200 752.3 250 741.7 300 732.2C350 722.7 400 714.3 450 697C500 679.7 550 653.3 600 610.5C650 567.7 700 508.3 750 522.5C800 536.7 850 624.3 900 620.7C950 617 1000 522 1050 475.8C1100 429.7 1150 432.3 1175 433.7L1200 435L1200 901L1175 901C1150 901 1100 901 1050 901C1000 901 950 901 900 901C850 901 800 901 750 901C700 901 650 901 600 901C550 901 500 901 450 901C400 901 350 901 300 901C250 901 200 901 150 901C100 901 50 901 25 901L0 901Z" fill="#e5f2f9"></path><path d="M0 628L25 597.8C50 567.7 100 507.3 150 535.2C200 563 250 679 300 744.5C350 810 400 825 450 773.7C500 722.3 550 604.7 600 601.3C650 598 700 709 750 732.3C800 755.7 850 691.3 900 659.7C950 628 1000 629 1050 615.8C1100 602.7 1150 575.3 1175 561.7L1200 548L1200 901L1175 901C1150 901 1100 901 1050 901C1000 901 950 901 900 901C850 901 800 901 750 901C700 901 650 901 600 901C550 901 500 901 450 901C400 901 350 901 300 901C250 901 200 901 150 901C100 901 50 901 25 901L0 901Z" fill="#d4ebf6"></path><path d="M0 507L25 566C50 625 100 743 150 755.7C200 768.3 250 675.7 300 644.7C350 613.7 400 644.3 450 654C500 663.7 550 652.3 600 646.7C650 641 700 641 750 677.5C800 714 850 787 900 798.5C950 810 1000 760 1050 714.5C1100 669 1150 628 1175 607.5L1200 587L1200 901L1175 901C1150 901 1100 901 1050 901C1000 901 950 901 900 901C850 901 800 901 750 901C700 901 650 901 600 901C550 901 500 901 450 901C400 901 350 901 300 901C250 901 200 901 150 901C100 901 50 901 25 901L0 901Z" fill="#c3e5f2"></path><path d="M0 569L25 614.2C50 659.3 100 749.7 150 782.3C200 815 250 790 300 760.8C350 731.7 400 698.3 450 694.5C500 690.7 550 716.3 600 730.5C650 744.7 700 747.3 750 727.5C800 707.7 850 665.3 900 682C950 698.7 1000 774.3 1050 802.2C1100 830 1150 810 1175 800L1200 790L1200 901L1175 901C1150 901 1100 901 1050 901C1000 901 950 901 900 901C850 901 800 901 750 901C700 901 650 901 600 901C550 901 500 901 450 901C400 901 350 901 300 901C250 901 200 901 150 901C100 901 50 901 25 901L0 901Z" fill="#b1dfee"></path><path d="M0 731L25 729C50 727 100 723 150 731.2C200 739.3 250 759.7 300 746.7C350 733.7 400 687.3 450 666.5C500 645.7 550 650.3 600 646.3C650 642.3 700 629.7 750 618.5C800 607.3 850 597.7 900 597.7C950 597.7 1000 607.3 1050 634.5C1100 661.7 1150 706.3 1175 728.7L1200 751L1200 901L1175 901C1150 901 1100 901 1050 901C1000 901 950 901 900 901C850 901 800 901 750 901C700 901 650 901 600 901C550 901 500 901 450 901C400 901 350 901 300 901C250 901 200 901 150 901C100 901 50 901 25 901L0 901Z" fill="#aadcec"></path><path d="M0 877L25 848.7C50 820.3 100 763.7 150 719.2C200 674.7 250 642.3 300 662C350 681.7 400 753.3 450 781.2C500 809 550 793 600 799.5C650 806 700 835 750 853.7C800 872.3 850 880.7 900 863.5C950 846.3 1000 803.7 1050 802.3C1100 801 1150 841 1175 861L1200 881L1200 901L1175 901C1150 901 1100 901 1050 901C1000 901 950 901 900 901C850 901 800 901 750 901C700 901 650 901 600 901C550 901 500 901 450 901C400 901 350 901 300 901C250 901 200 901 150 901C100 901 50 901 25 901L0 901Z" fill="#aadcec"></path><path d="M0 677L25 672.7C50 668.3 100 659.7 150 684.5C200 709.3 250 767.7 300 788.7C350 809.7 400 793.3 450 804.8C500 816.3 550 855.7 600 837.8C650 820 700 745 750 704.5C800 664 850 658 900 679C950 700 1000 748 1050 760.2C1100 772.3 1150 748.7 1175 736.8L1200 725L1200 901L1175 901C1150 901 1100 901 1050 901C1000 901 950 901 900 901C850 901 800 901 750 901C700 901 650 901 600 901C550 901 500 901 450 901C400 901 350 901 300 901C250 901 200 901 150 901C100 901 50 901 25 901L0 901Z" fill="#b1dfee"></path><path d="M0 872L25 872C50 872 100 872 150 872.8C200 873.7 250 875.3 300 867C350 858.7 400 840.3 450 832.5C500 824.7 550 827.3 600 818.8C650 810.3 700 790.7 750 790.8C800 791 850 811 900 806.8C950 802.7 1000 774.3 1050 755.3C1100 736.3 1150 726.7 1175 721.8L1200 717L1200 901L1175 901C1150 901 1100 901 1050 901C1000 901 950 901 900 901C850 901 800 901 750 901C700 901 650 901 600 901C550 901 500 901 450 901C400 901 350 901 300 901C250 901 200 901 150 901C100 901 50 901 25 901L0 901Z" fill="#c3e5f2"></path><path d="M0 839L25 844.7C50 850.3 100 861.7 150 845.3C200 829 250 785 300 761.7C350 738.3 400 735.7 450 736.8C500 738 550 743 600 744.8C650 746.7 700 745.3 750 761.8C800 778.3 850 812.7 900 812.7C950 812.7 1000 778.3 1050 780.5C1100 782.7 1150 821.3 1175 840.7L1200 860L1200 901L1175 901C1150 901 1100 901 1050 901C1000 901 950 901 900 901C850 901 800 901 750 901C700 901 650 901 600 901C550 901 500 901 450 901C400 901 350 901 300 901C250 901 200 901 150 901C100 901 50 901 25 901L0 901Z" fill="#d4ebf6"></path><path d="M0 850L25 856.5C50 863 100 876 150 872C200 868 250 847 300 848.2C350 849.3 400 872.7 450 867.8C500 863 550 830 600 811.5C650 793 700 789 750 790.7C800 792.3 850 799.7 900 800C950 800.3 1000 793.7 1050 796.3C1100 799 1150 811 1175 817L1200 823L1200 901L1175 901C1150 901 1100 901 1050 901C1000 901 950 901 900 901C850 901 800 901 750 901C700 901 650 901 600 901C550 901 500 901 450 901C400 901 350 901 300 901C250 901 200 901 150 901C100 901 50 901 25 901L0 901Z" fill="#e5f2f9"></path><path d="M0 827L25 838C50 849 100 871 150 869.7C200 868.3 250 843.7 300 837C350 830.3 400 841.7 450 846.2C500 850.7 550 848.3 600 844.3C650 840.3 700 834.7 750 839.2C800 843.7 850 858.3 900 859.5C950 860.7 1000 848.3 1050 846.7C1100 845 1150 854 1175 858.5L1200 863L1200 901L1175 901C1150 901 1100 901 1050 901C1000 901 950 901 900 901C850 901 800 901 750 901C700 901 650 901 600 901C550 901 500 901 450 901C400 901 350 901 300 901C250 901 200 901 150 901C100 901 50 901 25 901L0 901Z" fill="#f4f9fc"></path></svg>