<svg id="visual" viewBox="0 0 1600 1000" width="1600" height="1000" xmlns="http://www.w3.org/2000/svg" xmlns:xlink="http://www.w3.org/1999/xlink" version="1.1"><g stroke-width="17" stroke-linejoin="bevel"><path d="M807 484.5L823 494.5L870 477.5Z" fill="#3772f3" stroke="#f4f9fc"></path><path d="M870 477.5L804 392.7L807 484.5Z" fill="#acd8fc" stroke="#f4f9fc"></path><path d="M870 477.5L833 372.5L804 392.7Z" fill="#3772f3" stroke="#f4f9fc"></path><path d="M859 354.6L829 360.6L833 372.5Z" fill="#acd8fc" stroke="#f4f9fc"></path><path d="M833 372.5L829 360.6L804 392.7Z" fill="#acd8fc" stroke="#f4f9fc"></path><path d="M870 477.5L884 372.5L833 372.5Z" fill="#4f3cdd" stroke="#f4f9fc"></path><path d="M884 372.5L859 354.6L833 372.5Z" fill="#f4f9fc" stroke="#f4f9fc"></path><path d="M1021 554.5L941 470.6L881 664.4Z" fill="#529efc" stroke="#f4f9fc"></path><path d="M870 477.5L941 470.6L884 372.5Z" fill="#6db2fd" stroke="#f4f9fc"></path><path d="M992 375.7L899 353.7L884 372.5Z" fill="#acd8fc" stroke="#f4f9fc"></path><path d="M884 372.5L899 353.7L859 354.6Z" fill="#529efc" stroke="#f4f9fc"></path><path d="M681 535.5L641 491.5L651 521.5Z" fill="#4f3cdd" stroke="#f4f9fc"></path><path d="M641 491.5L691 537.5L807 484.5Z" fill="#acd8fc" stroke="#f4f9fc"></path><path d="M807 484.5L691 537.5L823 494.5Z" fill="#acd8fc" stroke="#f4f9fc"></path><path d="M881 664.4L941 470.6L870 477.5Z" fill="#6000cb" stroke="#f4f9fc"></path><path d="M681 535.5L691 537.5L641 491.5Z" fill="#6000cb" stroke="#f4f9fc"></path><path d="M859 354.6L802 284.8L829 360.6Z" fill="#3e89f9" stroke="#f4f9fc"></path><path d="M829 360.6L802 284.8L804 392.7Z" fill="#cfe9fb" stroke="#f4f9fc"></path><path d="M899 353.7L802 284.8L859 354.6Z" fill="#3772f3" stroke="#f4f9fc"></path><path d="M941 470.6L992 375.7L884 372.5Z" fill="#529efc" stroke="#f4f9fc"></path><path d="M899 353.7L916 195.8L802 284.8Z" fill="#3f59ea" stroke="#f4f9fc"></path><path d="M941 470.6L1028 445.5L992 375.7Z" fill="#3e89f9" stroke="#f4f9fc"></path><path d="M641 491.5L807 484.5L804 392.7Z" fill="#3e89f9" stroke="#f4f9fc"></path><path d="M673 341.6L641 491.5L804 392.7Z" fill="#3f59ea" stroke="#f4f9fc"></path><path d="M708 301.8L673 341.6L804 392.7Z" fill="#acd8fc" stroke="#f4f9fc"></path><path d="M661 611.4L700 603.4L681 535.5Z" fill="#6db2fd" stroke="#f4f9fc"></path><path d="M681 535.5L700 603.4L691 537.5Z" fill="#6db2fd" stroke="#f4f9fc"></path><path d="M691 537.5L700 603.4L823 494.5Z" fill="#cfe9fb" stroke="#f4f9fc"></path><path d="M941 470.6L1021 554.5L1028 445.5Z" fill="#cfe9fb" stroke="#f4f9fc"></path><path d="M802 284.8L708 301.8L804 392.7Z" fill="#3e89f9" stroke="#f4f9fc"></path><path d="M1080 331.6L996 331.7L992 375.7Z" fill="#3772f3" stroke="#f4f9fc"></path><path d="M992 375.7L996 331.7L899 353.7Z" fill="#4f3cdd" stroke="#f4f9fc"></path><path d="M756 241.7L700 296.6L708 301.8Z" fill="#cfe9fb" stroke="#f4f9fc"></path><path d="M708 301.8L667 324.7L673 341.6Z" fill="#3772f3" stroke="#f4f9fc"></path><path d="M881 664.4L870 477.5L823 494.5Z" fill="#6db2fd" stroke="#f4f9fc"></path><path d="M778 677.4L881 664.4L823 494.5Z" fill="#3e89f9" stroke="#f4f9fc"></path><path d="M700 296.6L667 324.7L708 301.8Z" fill="#6db2fd" stroke="#f4f9fc"></path><path d="M673 341.6L600 333.7L641 491.5Z" fill="#3f59ea" stroke="#f4f9fc"></path><path d="M1049 572.5L1033 548.4L1021 554.5Z" fill="#3e89f9" stroke="#f4f9fc"></path><path d="M1021 554.5L1033 548.4L1028 445.5Z" fill="#acd8fc" stroke="#f4f9fc"></path><path d="M1061 478.5L1056 431.5L1028 445.5Z" fill="#529efc" stroke="#f4f9fc"></path><path d="M1028 445.5L1056 431.5L992 375.7Z" fill="#529efc" stroke="#f4f9fc"></path><path d="M1033 548.4L1061 478.5L1028 445.5Z" fill="#f4f9fc" stroke="#f4f9fc"></path><path d="M700 603.4L778 677.4L823 494.5Z" fill="#529efc" stroke="#f4f9fc"></path><path d="M875 176.8L756 241.7L802 284.8Z" fill="#cfe9fb" stroke="#f4f9fc"></path><path d="M802 284.8L756 241.7L708 301.8Z" fill="#3772f3" stroke="#f4f9fc"></path><path d="M700 296.6L635 300.8L667 324.7Z" fill="#6000cb" stroke="#f4f9fc"></path><path d="M778 677.4L862 688.2L881 664.4Z" fill="#3f59ea" stroke="#f4f9fc"></path><path d="M1052 640.4L1049 572.5L1021 554.5Z" fill="#6000cb" stroke="#f4f9fc"></path><path d="M651 521.5L661 611.4L681 535.5Z" fill="#6000cb" stroke="#f4f9fc"></path><path d="M700 603.4L661 611.4L778 677.4Z" fill="#529efc" stroke="#f4f9fc"></path><path d="M614 533.5L661 611.4L651 521.5Z" fill="#3f59ea" stroke="#f4f9fc"></path><path d="M504 521.5L614 533.5L641 491.5Z" fill="#cfe9fb" stroke="#f4f9fc"></path><path d="M641 491.5L614 533.5L651 521.5Z" fill="#6db2fd" stroke="#f4f9fc"></path><path d="M865 761.3L875 692.2L862 688.2Z" fill="#8bc5fd" stroke="#f4f9fc"></path><path d="M862 688.2L875 692.2L881 664.4Z" fill="#4f3cdd" stroke="#f4f9fc"></path><path d="M950 698.3L1021 554.5L881 664.4Z" fill="#529efc" stroke="#f4f9fc"></path><path d="M1033 548.4L1112 571.5L1061 478.5Z" fill="#acd8fc" stroke="#f4f9fc"></path><path d="M875 692.2L903 695.3L881 664.4Z" fill="#acd8fc" stroke="#f4f9fc"></path><path d="M678 179.8L635 300.8L700 296.6Z" fill="#3772f3" stroke="#f4f9fc"></path><path d="M667 324.7L600 333.7L673 341.6Z" fill="#4f3cdd" stroke="#f4f9fc"></path><path d="M635 300.8L600 333.7L667 324.7Z" fill="#acd8fc" stroke="#f4f9fc"></path><path d="M504 521.5L593 568.4L614 533.5Z" fill="#acd8fc" stroke="#f4f9fc"></path><path d="M614 533.5L593 568.4L661 611.4Z" fill="#cfe9fb" stroke="#f4f9fc"></path><path d="M903 695.3L950 698.3L881 664.4Z" fill="#8bc5fd" stroke="#f4f9fc"></path><path d="M1061 478.5L1103 434.6L1056 431.5Z" fill="#cfe9fb" stroke="#f4f9fc"></path><path d="M1056 431.5L1080 331.6L992 375.7Z" fill="#529efc" stroke="#f4f9fc"></path><path d="M1112 571.5L1103 434.6L1061 478.5Z" fill="#8bc5fd" stroke="#f4f9fc"></path><path d="M965 195.8L916 195.8L996 331.7Z" fill="#f4f9fc" stroke="#f4f9fc"></path><path d="M996 331.7L916 195.8L899 353.7Z" fill="#3e89f9" stroke="#f4f9fc"></path><path d="M1103 434.6L1080 331.6L1056 431.5Z" fill="#3f59ea" stroke="#f4f9fc"></path><path d="M1080 331.6L1058 293.8L996 331.7Z" fill="#3f59ea" stroke="#f4f9fc"></path><path d="M943 786.2L970 701.3L950 698.3Z" fill="#acd8fc" stroke="#f4f9fc"></path><path d="M950 698.3L970 701.3L1021 554.5Z" fill="#3772f3" stroke="#f4f9fc"></path><path d="M916 195.8L875 176.8L802 284.8Z" fill="#acd8fc" stroke="#f4f9fc"></path><path d="M557 218.8L563 320.8L635 300.8Z" fill="#529efc" stroke="#f4f9fc"></path><path d="M970 701.3L1052 640.4L1021 554.5Z" fill="#f4f9fc" stroke="#f4f9fc"></path><path d="M1049 572.5L1112 571.5L1033 548.4Z" fill="#8bc5fd" stroke="#f4f9fc"></path><path d="M1058 293.8L965 195.8L996 331.7Z" fill="#3f59ea" stroke="#f4f9fc"></path><path d="M916 195.8L986 117.8L875 176.8Z" fill="#cfe9fb" stroke="#f4f9fc"></path><path d="M563 320.8L561 352.6L600 333.7Z" fill="#3f59ea" stroke="#f4f9fc"></path><path d="M600 333.7L561 352.6L641 491.5Z" fill="#cfe9fb" stroke="#f4f9fc"></path><path d="M1052 640.4L1112 571.5L1049 572.5Z" fill="#8bc5fd" stroke="#f4f9fc"></path><path d="M678 179.8L700 296.6L756 241.7Z" fill="#acd8fc" stroke="#f4f9fc"></path><path d="M635 300.8L563 320.8L600 333.7Z" fill="#f4f9fc" stroke="#f4f9fc"></path><path d="M761 767.2L865 761.3L778 677.4Z" fill="#3f59ea" stroke="#f4f9fc"></path><path d="M778 677.4L865 761.3L862 688.2Z" fill="#4f3cdd" stroke="#f4f9fc"></path><path d="M875 692.2L865 761.3L903 695.3Z" fill="#6000cb" stroke="#f4f9fc"></path><path d="M903 695.3L943 786.2L950 698.3Z" fill="#6000cb" stroke="#f4f9fc"></path><path d="M761 767.2L778 677.4L641 777.3Z" fill="#6db2fd" stroke="#f4f9fc"></path><path d="M711 162.8L678 179.8L756 241.7Z" fill="#cfe9fb" stroke="#f4f9fc"></path><path d="M771 132.9L711 162.8L756 241.7Z" fill="#6000cb" stroke="#f4f9fc"></path><path d="M641 777.3L778 677.4L661 611.4Z" fill="#acd8fc" stroke="#f4f9fc"></path><path d="M970 701.3L1052 692.2L1052 640.4Z" fill="#6db2fd" stroke="#f4f9fc"></path><path d="M1052 640.4L1127 631.5L1112 571.5Z" fill="#6db2fd" stroke="#f4f9fc"></path><path d="M1029 795.2L1052 692.2L970 701.3Z" fill="#3f59ea" stroke="#f4f9fc"></path><path d="M1164 340.7L1066 229.8L1058 293.8Z" fill="#3772f3" stroke="#f4f9fc"></path><path d="M1058 293.8L1066 229.8L965 195.8Z" fill="#acd8fc" stroke="#f4f9fc"></path><path d="M1164 340.7L1058 293.8L1080 331.6Z" fill="#3772f3" stroke="#f4f9fc"></path><path d="M1066 229.8L1059 214.7L965 195.8Z" fill="#6000cb" stroke="#f4f9fc"></path><path d="M861 62.9L771 132.9L875 176.8Z" fill="#f4f9fc" stroke="#f4f9fc"></path><path d="M875 176.8L771 132.9L756 241.7Z" fill="#8bc5fd" stroke="#f4f9fc"></path><path d="M986 117.8L916 195.8L965 195.8Z" fill="#cfe9fb" stroke="#f4f9fc"></path><path d="M485 476.6L641 491.5L561 352.6Z" fill="#6000cb" stroke="#f4f9fc"></path><path d="M485 476.6L504 521.5L641 491.5Z" fill="#acd8fc" stroke="#f4f9fc"></path><path d="M593 568.4L565 679.4L661 611.4Z" fill="#3f59ea" stroke="#f4f9fc"></path><path d="M1101 711.3L1127 631.5L1052 640.4Z" fill="#6db2fd" stroke="#f4f9fc"></path><path d="M1260 410.6L1164 340.7L1103 434.6Z" fill="#3e89f9" stroke="#f4f9fc"></path><path d="M971 840.2L943 786.2L832 872.1Z" fill="#6000cb" stroke="#f4f9fc"></path><path d="M865 761.3L943 786.2L903 695.3Z" fill="#6000cb" stroke="#f4f9fc"></path><path d="M1052 692.2L1101 711.3L1052 640.4Z" fill="#3772f3" stroke="#f4f9fc"></path><path d="M1211 297.6L1164 340.7L1242 301.7Z" fill="#8bc5fd" stroke="#f4f9fc"></path><path d="M1103 434.6L1164 340.7L1080 331.6Z" fill="#6000cb" stroke="#f4f9fc"></path><path d="M1066 229.8L1108 166.9L1059 214.7Z" fill="#cfe9fb" stroke="#f4f9fc"></path><path d="M1059 214.7L995 144.8L965 195.8Z" fill="#8bc5fd" stroke="#f4f9fc"></path><path d="M503 674.3L565 679.4L593 568.4Z" fill="#3772f3" stroke="#f4f9fc"></path><path d="M464 327.7L485 476.6L561 352.6Z" fill="#8bc5fd" stroke="#f4f9fc"></path><path d="M504 521.5L503 674.3L593 568.4Z" fill="#529efc" stroke="#f4f9fc"></path><path d="M649 817.2L791 813.2L761 767.2Z" fill="#cfe9fb" stroke="#f4f9fc"></path><path d="M761 767.2L791 813.2L865 761.3Z" fill="#3f59ea" stroke="#f4f9fc"></path><path d="M556 135.9L557 218.8L678 179.8Z" fill="#6db2fd" stroke="#f4f9fc"></path><path d="M678 179.8L557 218.8L635 300.8Z" fill="#3e89f9" stroke="#f4f9fc"></path><path d="M563 320.8L493 296.8L561 352.6Z" fill="#3f59ea" stroke="#f4f9fc"></path><path d="M556 135.9L678 179.8L633 0Z" fill="#6db2fd" stroke="#f4f9fc"></path><path d="M1029 795.2L1101 711.3L1052 692.2Z" fill="#acd8fc" stroke="#f4f9fc"></path><path d="M1095 143.8L995 144.8L1059 214.7Z" fill="#6db2fd" stroke="#f4f9fc"></path><path d="M1004 75.9L986 117.8L995 144.8Z" fill="#cfe9fb" stroke="#f4f9fc"></path><path d="M995 144.8L986 117.8L965 195.8Z" fill="#3772f3" stroke="#f4f9fc"></path><path d="M565 679.4L641 777.3L661 611.4Z" fill="#8bc5fd" stroke="#f4f9fc"></path><path d="M530 233.8L493 296.8L563 320.8Z" fill="#4f3cdd" stroke="#f4f9fc"></path><path d="M557 218.8L530 233.8L563 320.8Z" fill="#cfe9fb" stroke="#f4f9fc"></path><path d="M395 392.5L458 501.5L485 476.6Z" fill="#acd8fc" stroke="#f4f9fc"></path><path d="M485 476.6L458 501.5L504 521.5Z" fill="#6000cb" stroke="#f4f9fc"></path><path d="M1125 730.2L1137 700.4L1101 711.3Z" fill="#cfe9fb" stroke="#f4f9fc"></path><path d="M1101 711.3L1137 700.4L1127 631.5Z" fill="#cfe9fb" stroke="#f4f9fc"></path><path d="M1260 410.6L1103 434.6L1259 531.5Z" fill="#8bc5fd" stroke="#f4f9fc"></path><path d="M584 778.3L610 774.2L565 679.4Z" fill="#f4f9fc" stroke="#f4f9fc"></path><path d="M565 679.4L610 774.2L641 777.3Z" fill="#f4f9fc" stroke="#f4f9fc"></path><path d="M641 777.3L649 817.2L761 767.2Z" fill="#529efc" stroke="#f4f9fc"></path><path d="M943 786.2L1029 795.2L970 701.3Z" fill="#3772f3" stroke="#f4f9fc"></path><path d="M971 840.2L1029 795.2L943 786.2Z" fill="#3772f3" stroke="#f4f9fc"></path><path d="M456 189.8L464 327.7L493 296.8Z" fill="#6000cb" stroke="#f4f9fc"></path><path d="M493 296.8L464 327.7L561 352.6Z" fill="#cfe9fb" stroke="#f4f9fc"></path><path d="M986 117.8L861 62.9L875 176.8Z" fill="#8bc5fd" stroke="#f4f9fc"></path><path d="M652 0L678 179.8L711 162.8Z" fill="#6000cb" stroke="#f4f9fc"></path><path d="M1211 297.6L1108 166.9L1066 229.8Z" fill="#6000cb" stroke="#f4f9fc"></path><path d="M986 117.8L968 51.9L861 62.9Z" fill="#529efc" stroke="#f4f9fc"></path><path d="M435 617.5L503 674.3L504 521.5Z" fill="#cfe9fb" stroke="#f4f9fc"></path><path d="M1029 795.2L1125 730.2L1101 711.3Z" fill="#4f3cdd" stroke="#f4f9fc"></path><path d="M1108 166.9L1095 143.8L1059 214.7Z" fill="#6000cb" stroke="#f4f9fc"></path><path d="M611 846.2L649 817.2L610 774.2Z" fill="#f4f9fc" stroke="#f4f9fc"></path><path d="M610 774.2L649 817.2L641 777.3Z" fill="#3f59ea" stroke="#f4f9fc"></path><path d="M832 872.1L865 761.3L791 813.2Z" fill="#529efc" stroke="#f4f9fc"></path><path d="M832 872.1L943 786.2L865 761.3Z" fill="#529efc" stroke="#f4f9fc"></path><path d="M1029 795.2L1043 811.2L1125 730.2Z" fill="#3772f3" stroke="#f4f9fc"></path><path d="M1103 434.6L1112 571.5L1259 531.5Z" fill="#3772f3" stroke="#f4f9fc"></path><path d="M1164 340.7L1211 297.6L1066 229.8Z" fill="#cfe9fb" stroke="#f4f9fc"></path><path d="M1108 166.9L1119 145.8L1095 143.8Z" fill="#6db2fd" stroke="#f4f9fc"></path><path d="M577 780.2L584 778.3L565 679.4Z" fill="#4f3cdd" stroke="#f4f9fc"></path><path d="M1033 834.1L1043 811.2L1029 795.2Z" fill="#6db2fd" stroke="#f4f9fc"></path><path d="M503 674.3L577 780.2L565 679.4Z" fill="#6000cb" stroke="#f4f9fc"></path><path d="M584 778.3L611 846.2L610 774.2Z" fill="#f4f9fc" stroke="#f4f9fc"></path><path d="M1095 143.8L1004 75.9L995 144.8Z" fill="#8bc5fd" stroke="#f4f9fc"></path><path d="M767 892.1L832 872.1L791 813.2Z" fill="#3f59ea" stroke="#f4f9fc"></path><path d="M1207 144.8L1119 145.8L1108 166.9Z" fill="#3f59ea" stroke="#f4f9fc"></path><path d="M1095 143.8L1038 0L1004 75.9Z" fill="#acd8fc" stroke="#f4f9fc"></path><path d="M652 0L711 162.8L771 132.9Z" fill="#f4f9fc" stroke="#f4f9fc"></path><path d="M557 218.8L482 137.9L530 233.8Z" fill="#8bc5fd" stroke="#f4f9fc"></path><path d="M530 233.8L456 189.8L493 296.8Z" fill="#6db2fd" stroke="#f4f9fc"></path><path d="M939 0L968 51.9L948 0Z" fill="#6000cb" stroke="#f4f9fc"></path><path d="M1004 75.9L968 51.9L986 117.8Z" fill="#cfe9fb" stroke="#f4f9fc"></path><path d="M971 840.2L1033 834.1L1029 795.2Z" fill="#3f59ea" stroke="#f4f9fc"></path><path d="M1257 757.3L1204 726.2L1210 905.2Z" fill="#4f3cdd" stroke="#f4f9fc"></path><path d="M1012 893.1L1033 834.1L971 840.2Z" fill="#f4f9fc" stroke="#f4f9fc"></path><path d="M1259 531.5L1127 631.5L1261 638.3Z" fill="#3f59ea" stroke="#f4f9fc"></path><path d="M1259 531.5L1112 571.5L1127 631.5Z" fill="#6000cb" stroke="#f4f9fc"></path><path d="M1211 686.4L1127 631.5L1137 700.4Z" fill="#6000cb" stroke="#f4f9fc"></path><path d="M458 501.5L435 617.5L504 521.5Z" fill="#cfe9fb" stroke="#f4f9fc"></path><path d="M503 674.3L465 709.3L577 780.2Z" fill="#3e89f9" stroke="#f4f9fc"></path><path d="M360 533.5L435 617.5L458 501.5Z" fill="#3772f3" stroke="#f4f9fc"></path><path d="M1260 410.6L1242 301.7L1164 340.7Z" fill="#4f3cdd" stroke="#f4f9fc"></path><path d="M1211 297.6L1207 144.8L1108 166.9Z" fill="#529efc" stroke="#f4f9fc"></path><path d="M1204 726.2L1137 700.4L1125 730.2Z" fill="#8bc5fd" stroke="#f4f9fc"></path><path d="M1204 726.2L1211 686.4L1137 700.4Z" fill="#3772f3" stroke="#f4f9fc"></path><path d="M650 916.1L767 892.1L649 817.2Z" fill="#3772f3" stroke="#f4f9fc"></path><path d="M649 817.2L767 892.1L791 813.2Z" fill="#8bc5fd" stroke="#f4f9fc"></path><path d="M964 1000L1012 893.1L971 840.2Z" fill="#f4f9fc" stroke="#f4f9fc"></path><path d="M368 372.6L400 376.6L464 327.7Z" fill="#3e89f9" stroke="#f4f9fc"></path><path d="M464 327.7L400 376.6L485 476.6Z" fill="#529efc" stroke="#f4f9fc"></path><path d="M400 376.6L395 392.5L485 476.6Z" fill="#f4f9fc" stroke="#f4f9fc"></path><path d="M435 617.5L465 709.3L503 674.3Z" fill="#acd8fc" stroke="#f4f9fc"></path><path d="M546 833.1L611 846.2L577 780.2Z" fill="#6db2fd" stroke="#f4f9fc"></path><path d="M577 780.2L611 846.2L584 778.3Z" fill="#3772f3" stroke="#f4f9fc"></path><path d="M939 0L844 0L861 62.9Z" fill="#8bc5fd" stroke="#f4f9fc"></path><path d="M861 62.9L844 0L771 132.9Z" fill="#3772f3" stroke="#f4f9fc"></path><path d="M1204 726.2L1125 730.2L1210 905.2Z" fill="#3f59ea" stroke="#f4f9fc"></path><path d="M1211 686.4L1261 638.3L1127 631.5Z" fill="#6db2fd" stroke="#f4f9fc"></path><path d="M1257 757.3L1261 638.3L1211 686.4Z" fill="#3f59ea" stroke="#f4f9fc"></path><path d="M1259 531.5L1350 439.5L1260 410.6Z" fill="#6db2fd" stroke="#f4f9fc"></path><path d="M482 137.9L456 189.8L530 233.8Z" fill="#3e89f9" stroke="#f4f9fc"></path><path d="M400 376.6L368 372.6L395 392.5Z" fill="#6db2fd" stroke="#f4f9fc"></path><path d="M948 0L968 51.9L1019 -17.1Z" fill="#cfe9fb" stroke="#f4f9fc"></path><path d="M968 51.9L939 0L861 62.9Z" fill="#4f3cdd" stroke="#f4f9fc"></path><path d="M1038 0L968 51.9L1004 75.9Z" fill="#8bc5fd" stroke="#f4f9fc"></path><path d="M885 1000L971 840.2L832 872.1Z" fill="#529efc" stroke="#f4f9fc"></path><path d="M1033 834.1L1210 905.2L1043 811.2Z" fill="#3772f3" stroke="#f4f9fc"></path><path d="M303 312.8L368 372.6L309 283.8Z" fill="#6db2fd" stroke="#f4f9fc"></path><path d="M395 392.5L360 533.5L458 501.5Z" fill="#8bc5fd" stroke="#f4f9fc"></path><path d="M457 825.2L546 833.1L577 780.2Z" fill="#529efc" stroke="#f4f9fc"></path><path d="M745 1000L812 938.1L767 892.1Z" fill="#6db2fd" stroke="#f4f9fc"></path><path d="M558 45.9L482 137.9L556 135.9Z" fill="#3772f3" stroke="#f4f9fc"></path><path d="M556 135.9L482 137.9L557 218.8Z" fill="#4f3cdd" stroke="#f4f9fc"></path><path d="M1308 229.8L1258 236.8L1242 301.7Z" fill="#f4f9fc" stroke="#f4f9fc"></path><path d="M1242 301.7L1258 236.8L1211 297.6Z" fill="#3e89f9" stroke="#f4f9fc"></path><path d="M1168 76.9L1038 0L1095 143.8Z" fill="#6db2fd" stroke="#f4f9fc"></path><path d="M266 437.5L360 533.5L395 392.5Z" fill="#4f3cdd" stroke="#f4f9fc"></path><path d="M435 617.5L390 689.3L465 709.3Z" fill="#8bc5fd" stroke="#f4f9fc"></path><path d="M650 916.1L649 817.2L611 846.2Z" fill="#6db2fd" stroke="#f4f9fc"></path><path d="M767 892.1L812 938.1L832 872.1Z" fill="#f4f9fc" stroke="#f4f9fc"></path><path d="M1258 236.8L1207 144.8L1211 297.6Z" fill="#8bc5fd" stroke="#f4f9fc"></path><path d="M307 544.5L352 543.4L360 533.5Z" fill="#529efc" stroke="#f4f9fc"></path><path d="M360 533.5L352 543.4L435 617.5Z" fill="#cfe9fb" stroke="#f4f9fc"></path><path d="M465 709.3L457 825.2L577 780.2Z" fill="#6db2fd" stroke="#f4f9fc"></path><path d="M844 0L652 0L771 132.9Z" fill="#cfe9fb" stroke="#f4f9fc"></path><path d="M441 156.8L434 171.8L456 189.8Z" fill="#cfe9fb" stroke="#f4f9fc"></path><path d="M309 283.8L368 372.6L464 327.7Z" fill="#cfe9fb" stroke="#f4f9fc"></path><path d="M441 156.8L456 189.8L482 137.9Z" fill="#cfe9fb" stroke="#f4f9fc"></path><path d="M439 0L441 156.8L482 137.9Z" fill="#529efc" stroke="#f4f9fc"></path><path d="M633 0L558 45.9L556 135.9Z" fill="#3f59ea" stroke="#f4f9fc"></path><path d="M625 940.1L650 916.1L568 915.2Z" fill="#6000cb" stroke="#f4f9fc"></path><path d="M1168 76.9L1095 143.8L1119 145.8Z" fill="#3772f3" stroke="#f4f9fc"></path><path d="M652 0L633 0L678 179.8Z" fill="#3e89f9" stroke="#f4f9fc"></path><path d="M1030 932.1L1037 915.2L1012 893.1Z" fill="#3f59ea" stroke="#f4f9fc"></path><path d="M1012 893.1L1037 915.2L1033 834.1Z" fill="#acd8fc" stroke="#f4f9fc"></path><path d="M323 662.4L390 689.3L435 617.5Z" fill="#4f3cdd" stroke="#f4f9fc"></path><path d="M1207 144.8L1168 76.9L1119 145.8Z" fill="#8bc5fd" stroke="#f4f9fc"></path><path d="M1257 757.3L1211 686.4L1204 726.2Z" fill="#6000cb" stroke="#f4f9fc"></path><path d="M1257 757.3L1312 623.4L1261 638.3Z" fill="#f4f9fc" stroke="#f4f9fc"></path><path d="M1261 638.3L1312 623.4L1259 531.5Z" fill="#3e89f9" stroke="#f4f9fc"></path><path d="M1260 410.6L1358 364.6L1242 301.7Z" fill="#6000cb" stroke="#f4f9fc"></path><path d="M303 312.8L337 366.7L368 372.6Z" fill="#6db2fd" stroke="#f4f9fc"></path><path d="M368 372.6L266 437.5L395 392.5Z" fill="#3772f3" stroke="#f4f9fc"></path><path d="M464 327.7L456 189.8L309 283.8Z" fill="#8bc5fd" stroke="#f4f9fc"></path><path d="M1154 0L1019 -17.1L1038 0Z" fill="#acd8fc" stroke="#f4f9fc"></path><path d="M1038 0L1019 -17.1L968 51.9Z" fill="#6db2fd" stroke="#f4f9fc"></path><path d="M948 0L1019 -17.1L939 0Z" fill="#f4f9fc" stroke="#f4f9fc"></path><path d="M939 0L1019 -17.1L844 0Z" fill="#3f59ea" stroke="#f4f9fc"></path><path d="M844 0L1019 -17.1L652 0Z" fill="#3772f3" stroke="#f4f9fc"></path><path d="M652 0L600 -1.1L633 0Z" fill="#6db2fd" stroke="#f4f9fc"></path><path d="M600 -1.1L608 0L633 0Z" fill="#f4f9fc" stroke="#f4f9fc"></path><path d="M633 0L608 0L558 45.9Z" fill="#f4f9fc" stroke="#f4f9fc"></path><path d="M1030 932.1L1045 924.2L1037 915.2Z" fill="#6db2fd" stroke="#f4f9fc"></path><path d="M1037 915.2L1045 924.2L1033 834.1Z" fill="#3772f3" stroke="#f4f9fc"></path><path d="M964 1000L1030 932.1L1012 893.1Z" fill="#6db2fd" stroke="#f4f9fc"></path><path d="M608 0L600 -1.1L558 45.9Z" fill="#3772f3" stroke="#f4f9fc"></path><path d="M558 45.9L446 0L482 137.9Z" fill="#3772f3" stroke="#f4f9fc"></path><path d="M1019 -17.1L600 -1.1L652 0Z" fill="#acd8fc" stroke="#f4f9fc"></path><path d="M1364 558.4L1350 439.5L1259 531.5Z" fill="#3772f3" stroke="#f4f9fc"></path><path d="M1210 905.2L1125 730.2L1043 811.2Z" fill="#529efc" stroke="#f4f9fc"></path><path d="M1358 285.8L1308 229.8L1242 301.7Z" fill="#f4f9fc" stroke="#f4f9fc"></path><path d="M1258 236.8L1237 110.9L1207 144.8Z" fill="#f4f9fc" stroke="#f4f9fc"></path><path d="M1207 144.8L1237 110.9L1168 76.9Z" fill="#acd8fc" stroke="#f4f9fc"></path><path d="M568 915.2L650 916.1L611 846.2Z" fill="#4f3cdd" stroke="#f4f9fc"></path><path d="M708 1000L745 1000L767 892.1Z" fill="#3f59ea" stroke="#f4f9fc"></path><path d="M568 915.2L611 846.2L546 833.1Z" fill="#cfe9fb" stroke="#f4f9fc"></path><path d="M405 772.3L457 825.2L465 709.3Z" fill="#acd8fc" stroke="#f4f9fc"></path><path d="M1308 229.8L1237 110.9L1258 236.8Z" fill="#3772f3" stroke="#f4f9fc"></path><path d="M1168 76.9L1154 0L1038 0Z" fill="#8bc5fd" stroke="#f4f9fc"></path><path d="M1350 439.5L1358 364.6L1260 410.6Z" fill="#3e89f9" stroke="#f4f9fc"></path><path d="M431 857.2L568 915.2L546 833.1Z" fill="#6db2fd" stroke="#f4f9fc"></path><path d="M323 662.4L405 772.3L390 689.3Z" fill="#cfe9fb" stroke="#f4f9fc"></path><path d="M390 689.3L405 772.3L465 709.3Z" fill="#f4f9fc" stroke="#f4f9fc"></path><path d="M266 437.5L307 544.5L360 533.5Z" fill="#acd8fc" stroke="#f4f9fc"></path><path d="M352 543.4L323 662.4L435 617.5Z" fill="#6db2fd" stroke="#f4f9fc"></path><path d="M1363 612.4L1353 597.5L1312 623.4Z" fill="#3f59ea" stroke="#f4f9fc"></path><path d="M1312 623.4L1353 597.5L1259 531.5Z" fill="#f4f9fc" stroke="#f4f9fc"></path><path d="M1350 439.5L1405 417.5L1358 364.6Z" fill="#3e89f9" stroke="#f4f9fc"></path><path d="M1353 597.5L1364 558.4L1259 531.5Z" fill="#6000cb" stroke="#f4f9fc"></path><path d="M1450 334.7L1360 317.6L1358 364.6Z" fill="#acd8fc" stroke="#f4f9fc"></path><path d="M1358 364.6L1360 317.6L1242 301.7Z" fill="#529efc" stroke="#f4f9fc"></path><path d="M745 1000L885 1000L812 938.1Z" fill="#3e89f9" stroke="#f4f9fc"></path><path d="M812 938.1L885 1000L832 872.1Z" fill="#3f59ea" stroke="#f4f9fc"></path><path d="M1360 317.6L1358 285.8L1242 301.7Z" fill="#6db2fd" stroke="#f4f9fc"></path><path d="M1308 229.8L1376 128.9L1237 110.9Z" fill="#3f59ea" stroke="#f4f9fc"></path><path d="M1371 616.5L1363 612.4L1312 623.4Z" fill="#cfe9fb" stroke="#f4f9fc"></path><path d="M1353 597.5L1371 616.5L1364 558.4Z" fill="#cfe9fb" stroke="#f4f9fc"></path><path d="M708 1000L650 916.1L636 1000Z" fill="#6db2fd" stroke="#f4f9fc"></path><path d="M708 1000L767 892.1L650 916.1Z" fill="#6db2fd" stroke="#f4f9fc"></path><path d="M309 283.8L456 189.8L434 171.8Z" fill="#acd8fc" stroke="#f4f9fc"></path><path d="M337 366.7L266 437.5L368 372.6Z" fill="#6000cb" stroke="#f4f9fc"></path><path d="M307 544.5L323 662.4L352 543.4Z" fill="#8bc5fd" stroke="#f4f9fc"></path><path d="M309 283.8L434 171.8L301 114.8Z" fill="#3e89f9" stroke="#f4f9fc"></path><path d="M250 245.8L309 283.8L301 114.8Z" fill="#6db2fd" stroke="#f4f9fc"></path><path d="M1202 0L1154 0L1168 76.9Z" fill="#3f59ea" stroke="#f4f9fc"></path><path d="M636 1000L650 916.1L625 940.1Z" fill="#3e89f9" stroke="#f4f9fc"></path><path d="M1393 717.2L1371 616.5L1312 623.4Z" fill="#4f3cdd" stroke="#f4f9fc"></path><path d="M1363 612.4L1371 616.5L1353 597.5Z" fill="#f4f9fc" stroke="#f4f9fc"></path><path d="M1364 558.4L1405 417.5L1350 439.5Z" fill="#529efc" stroke="#f4f9fc"></path><path d="M1030 932.1L1090 1000L1045 924.2Z" fill="#529efc" stroke="#f4f9fc"></path><path d="M1045 924.2L1210 905.2L1033 834.1Z" fill="#3772f3" stroke="#f4f9fc"></path><path d="M885 1000L964 1000L971 840.2Z" fill="#cfe9fb" stroke="#f4f9fc"></path><path d="M1358 285.8L1354 222.8L1308 229.8Z" fill="#3e89f9" stroke="#f4f9fc"></path><path d="M1235 0L1202 0L1168 76.9Z" fill="#4f3cdd" stroke="#f4f9fc"></path><path d="M250 245.8L279 334.7L303 312.8Z" fill="#cfe9fb" stroke="#f4f9fc"></path><path d="M303 312.8L279 334.7L337 366.7Z" fill="#4f3cdd" stroke="#f4f9fc"></path><path d="M457 825.2L431 857.2L546 833.1Z" fill="#f4f9fc" stroke="#f4f9fc"></path><path d="M547 1000L636 1000L625 940.1Z" fill="#529efc" stroke="#f4f9fc"></path><path d="M405 772.3L431 857.2L457 825.2Z" fill="#6000cb" stroke="#f4f9fc"></path><path d="M369 839.1L431 857.2L405 772.3Z" fill="#6000cb" stroke="#f4f9fc"></path><path d="M279 334.7L266 437.5L337 366.7Z" fill="#6db2fd" stroke="#f4f9fc"></path><path d="M307 544.5L240 627.4L323 662.4Z" fill="#f4f9fc" stroke="#f4f9fc"></path><path d="M1490 427.5L1405 417.5L1521 534.5Z" fill="#8bc5fd" stroke="#f4f9fc"></path><path d="M1360 317.6L1450 334.7L1358 285.8Z" fill="#f4f9fc" stroke="#f4f9fc"></path><path d="M1358 285.8L1359 220.8L1354 222.8Z" fill="#3f59ea" stroke="#f4f9fc"></path><path d="M1489 309.7L1359 220.8L1358 285.8Z" fill="#3772f3" stroke="#f4f9fc"></path><path d="M1354 222.8L1376 128.9L1308 229.8Z" fill="#8bc5fd" stroke="#f4f9fc"></path><path d="M266 437.5L259 506.5L307 544.5Z" fill="#acd8fc" stroke="#f4f9fc"></path><path d="M547 1000L625 940.1L568 915.2Z" fill="#6000cb" stroke="#f4f9fc"></path><path d="M1120 1000L1210 905.2L1045 924.2Z" fill="#f4f9fc" stroke="#f4f9fc"></path><path d="M1257 757.3L1393 717.2L1312 623.4Z" fill="#3772f3" stroke="#f4f9fc"></path><path d="M1235 0L1168 76.9L1237 110.9Z" fill="#6000cb" stroke="#f4f9fc"></path><path d="M1154 0L1202 0L1019 -17.1Z" fill="#529efc" stroke="#f4f9fc"></path><path d="M1019 -17.1L446 0L600 -1.1Z" fill="#529efc" stroke="#f4f9fc"></path><path d="M600 -1.1L446 0L558 45.9Z" fill="#3772f3" stroke="#f4f9fc"></path><path d="M309 283.8L250 245.8L303 312.8Z" fill="#acd8fc" stroke="#f4f9fc"></path><path d="M964 1000L1090 1000L1030 932.1Z" fill="#3772f3" stroke="#f4f9fc"></path><path d="M308 840.2L369 839.1L405 772.3Z" fill="#4f3cdd" stroke="#f4f9fc"></path><path d="M437 938.2L547 1000L568 915.2Z" fill="#529efc" stroke="#f4f9fc"></path><path d="M308 840.2L405 772.3L240 784.2Z" fill="#529efc" stroke="#f4f9fc"></path><path d="M1019 -17.1L439 0L446 0Z" fill="#3f59ea" stroke="#f4f9fc"></path><path d="M446 0L439 0L482 137.9Z" fill="#cfe9fb" stroke="#f4f9fc"></path><path d="M1309 0L1235 0L1237 110.9Z" fill="#3772f3" stroke="#f4f9fc"></path><path d="M1202 0L1235 0L1019 -17.1Z" fill="#6db2fd" stroke="#f4f9fc"></path><path d="M1090 1000L1120 1000L1045 924.2Z" fill="#3e89f9" stroke="#f4f9fc"></path><path d="M1433 746.2L1393 717.2L1428 771.3Z" fill="#8bc5fd" stroke="#f4f9fc"></path><path d="M1521 534.5L1405 417.5L1364 558.4Z" fill="#3772f3" stroke="#f4f9fc"></path><path d="M1260 921.1L1257 757.3L1210 905.2Z" fill="#6db2fd" stroke="#f4f9fc"></path><path d="M437 938.2L568 915.2L431 857.2Z" fill="#6db2fd" stroke="#f4f9fc"></path><path d="M124 571.5L240 627.4L259 506.5Z" fill="#4f3cdd" stroke="#f4f9fc"></path><path d="M259 506.5L240 627.4L307 544.5Z" fill="#3e89f9" stroke="#f4f9fc"></path><path d="M190 454.6L259 506.5L266 437.5Z" fill="#6db2fd" stroke="#f4f9fc"></path><path d="M301 114.8L434 171.8L441 156.8Z" fill="#f4f9fc" stroke="#f4f9fc"></path><path d="M279 334.7L190 454.6L266 437.5Z" fill="#4f3cdd" stroke="#f4f9fc"></path><path d="M331 878.2L437 938.2L431 857.2Z" fill="#f4f9fc" stroke="#f4f9fc"></path><path d="M1490 427.5L1450 334.7L1405 417.5Z" fill="#f4f9fc" stroke="#f4f9fc"></path><path d="M1405 417.5L1450 334.7L1358 364.6Z" fill="#3e89f9" stroke="#f4f9fc"></path><path d="M1359 220.8L1376 128.9L1354 222.8Z" fill="#8bc5fd" stroke="#f4f9fc"></path><path d="M1207 1000L1260 921.1L1210 905.2Z" fill="#acd8fc" stroke="#f4f9fc"></path><path d="M1090 1000L1138 1010.1L1120 1000Z" fill="#acd8fc" stroke="#f4f9fc"></path><path d="M1120 1000L1138 1010.1L1210 905.2Z" fill="#6000cb" stroke="#f4f9fc"></path><path d="M964 1000L1138 1010.1L1090 1000Z" fill="#cfe9fb" stroke="#f4f9fc"></path><path d="M885 1000L1138 1010.1L964 1000Z" fill="#f4f9fc" stroke="#f4f9fc"></path><path d="M745 1000L1138 1010.1L885 1000Z" fill="#cfe9fb" stroke="#f4f9fc"></path><path d="M708 1000L1138 1010.1L745 1000Z" fill="#3e89f9" stroke="#f4f9fc"></path><path d="M636 1000L1138 1010.1L708 1000Z" fill="#3e89f9" stroke="#f4f9fc"></path><path d="M547 1000L1138 1010.1L636 1000Z" fill="#cfe9fb" stroke="#f4f9fc"></path><path d="M1439 159.8L1376 128.9L1359 220.8Z" fill="#cfe9fb" stroke="#f4f9fc"></path><path d="M439 0L301 114.8L441 156.8Z" fill="#4f3cdd" stroke="#f4f9fc"></path><path d="M1439 159.8L1380 119.8L1376 128.9Z" fill="#3f59ea" stroke="#f4f9fc"></path><path d="M1376 128.9L1380 119.8L1237 110.9Z" fill="#4f3cdd" stroke="#f4f9fc"></path><path d="M122 370.6L190 454.6L279 334.7Z" fill="#6db2fd" stroke="#f4f9fc"></path><path d="M240 784.2L405 772.3L323 662.4Z" fill="#acd8fc" stroke="#f4f9fc"></path><path d="M369 839.1L331 878.2L431 857.2Z" fill="#6db2fd" stroke="#f4f9fc"></path><path d="M1487 602.5L1364 558.4L1371 616.5Z" fill="#acd8fc" stroke="#f4f9fc"></path><path d="M1450 334.7L1489 309.7L1358 285.8Z" fill="#3e89f9" stroke="#f4f9fc"></path><path d="M1380 119.8L1309 0L1237 110.9Z" fill="#acd8fc" stroke="#f4f9fc"></path><path d="M1235 0L1309 0L1019 -17.1Z" fill="#3772f3" stroke="#f4f9fc"></path><path d="M1138 1010.1L1205 1000L1210 905.2Z" fill="#3e89f9" stroke="#f4f9fc"></path><path d="M308 840.2L331 878.2L369 839.1Z" fill="#6000cb" stroke="#f4f9fc"></path><path d="M1138 1010.1L1207 1000L1205 1000Z" fill="#3e89f9" stroke="#f4f9fc"></path><path d="M1205 1000L1207 1000L1210 905.2Z" fill="#8bc5fd" stroke="#f4f9fc"></path><path d="M1374 851.2L1393 717.2L1257 757.3Z" fill="#acd8fc" stroke="#f4f9fc"></path><path d="M1471 663.4L1487 602.5L1371 616.5Z" fill="#3e89f9" stroke="#f4f9fc"></path><path d="M1374 851.2L1257 757.3L1260 921.1Z" fill="#3f59ea" stroke="#f4f9fc"></path><path d="M110 400.7L169 485.5L190 454.6Z" fill="#3772f3" stroke="#f4f9fc"></path><path d="M190 454.6L169 485.5L259 506.5Z" fill="#acd8fc" stroke="#f4f9fc"></path><path d="M195 708.3L240 784.2L323 662.4Z" fill="#3772f3" stroke="#f4f9fc"></path><path d="M1471 663.4L1371 616.5L1393 717.2Z" fill="#cfe9fb" stroke="#f4f9fc"></path><path d="M1325 928.2L1374 851.2L1260 921.1Z" fill="#cfe9fb" stroke="#f4f9fc"></path><path d="M1433 746.2L1471 663.4L1393 717.2Z" fill="#529efc" stroke="#f4f9fc"></path><path d="M1490 427.5L1489 309.7L1450 334.7Z" fill="#3772f3" stroke="#f4f9fc"></path><path d="M417 1000L443 1000L437 938.2Z" fill="#6db2fd" stroke="#f4f9fc"></path><path d="M437 938.2L443 1000L547 1000Z" fill="#6db2fd" stroke="#f4f9fc"></path><path d="M547 1000L443 1000L1138 1010.1Z" fill="#529efc" stroke="#f4f9fc"></path><path d="M1374 851.2L1428 771.3L1393 717.2Z" fill="#6000cb" stroke="#f4f9fc"></path><path d="M1433 746.2L1504 723.2L1471 663.4Z" fill="#6000cb" stroke="#f4f9fc"></path><path d="M1489 309.7L1439 159.8L1359 220.8Z" fill="#4f3cdd" stroke="#f4f9fc"></path><path d="M1380 119.8L1440 0L1309 0Z" fill="#f4f9fc" stroke="#f4f9fc"></path><path d="M308 840.2L321 897.2L331 878.2Z" fill="#529efc" stroke="#f4f9fc"></path><path d="M331 878.2L321 897.2L437 938.2Z" fill="#cfe9fb" stroke="#f4f9fc"></path><path d="M248 851.2L321 897.2L308 840.2Z" fill="#6db2fd" stroke="#f4f9fc"></path><path d="M1207 1000L1325 928.2L1260 921.1Z" fill="#3e89f9" stroke="#f4f9fc"></path><path d="M1374 851.2L1410 851.2L1428 771.3Z" fill="#529efc" stroke="#f4f9fc"></path><path d="M195 708.3L323 662.4L240 627.4Z" fill="#6000cb" stroke="#f4f9fc"></path><path d="M1471 663.4L1504 597.5L1487 602.5Z" fill="#6db2fd" stroke="#f4f9fc"></path><path d="M1487 602.5L1521 534.5L1364 558.4Z" fill="#f4f9fc" stroke="#f4f9fc"></path><path d="M1490 427.5L1559 330.7L1489 309.7Z" fill="#3e89f9" stroke="#f4f9fc"></path><path d="M1600 625.3L1504 597.5L1471 663.4Z" fill="#3e89f9" stroke="#f4f9fc"></path><path d="M1325 928.2L1386 864.1L1374 851.2Z" fill="#529efc" stroke="#f4f9fc"></path><path d="M377 1000L417 1000L437 938.2Z" fill="#8bc5fd" stroke="#f4f9fc"></path><path d="M443 1000L417 1000L1138 1010.1Z" fill="#529efc" stroke="#f4f9fc"></path><path d="M152 669.3L195 708.3L240 627.4Z" fill="#3f59ea" stroke="#f4f9fc"></path><path d="M1504 597.5L1521 534.5L1487 602.5Z" fill="#cfe9fb" stroke="#f4f9fc"></path><path d="M1465 981.1L1410 851.2L1386 864.1Z" fill="#acd8fc" stroke="#f4f9fc"></path><path d="M1386 864.1L1410 851.2L1374 851.2Z" fill="#3f59ea" stroke="#f4f9fc"></path><path d="M1428 771.3L1484 759.3L1433 746.2Z" fill="#6000cb" stroke="#f4f9fc"></path><path d="M281 -1.1L294 0L439 0Z" fill="#3f59ea" stroke="#f4f9fc"></path><path d="M439 0L294 0L301 114.8Z" fill="#4f3cdd" stroke="#f4f9fc"></path><path d="M152 154.9L162 229.7L250 245.8Z" fill="#acd8fc" stroke="#f4f9fc"></path><path d="M250 245.8L162 229.7L279 334.7Z" fill="#3f59ea" stroke="#f4f9fc"></path><path d="M226 841.2L248 851.2L240 784.2Z" fill="#6000cb" stroke="#f4f9fc"></path><path d="M240 784.2L248 851.2L308 840.2Z" fill="#529efc" stroke="#f4f9fc"></path><path d="M312 942.1L377 1000L437 938.2Z" fill="#529efc" stroke="#f4f9fc"></path><path d="M152 154.9L250 245.8L301 114.8Z" fill="#acd8fc" stroke="#f4f9fc"></path><path d="M312 942.1L437 938.2L321 897.2Z" fill="#3f59ea" stroke="#f4f9fc"></path><path d="M417 1000L377 1000L1138 1010.1Z" fill="#3f59ea" stroke="#f4f9fc"></path><path d="M248 851.2L312 942.1L321 897.2Z" fill="#529efc" stroke="#f4f9fc"></path><path d="M1410 851.2L1484 759.3L1428 771.3Z" fill="#6000cb" stroke="#f4f9fc"></path><path d="M1600 538.4L1600 526.5L1521 534.5Z" fill="#cfe9fb" stroke="#f4f9fc"></path><path d="M170 802.2L226 841.2L240 784.2Z" fill="#4f3cdd" stroke="#f4f9fc"></path><path d="M124 571.5L152 669.3L240 627.4Z" fill="#f4f9fc" stroke="#f4f9fc"></path><path d="M124 571.5L259 506.5L169 485.5Z" fill="#8bc5fd" stroke="#f4f9fc"></path><path d="M162 229.7L122 370.6L279 334.7Z" fill="#8bc5fd" stroke="#f4f9fc"></path><path d="M1019 -17.1L281 -1.1L439 0Z" fill="#8bc5fd" stroke="#f4f9fc"></path><path d="M294 0L281 -1.1L301 114.8Z" fill="#f4f9fc" stroke="#f4f9fc"></path><path d="M1502 736.3L1504 723.2L1433 746.2Z" fill="#6000cb" stroke="#f4f9fc"></path><path d="M103 534.5L124 571.5L169 485.5Z" fill="#6000cb" stroke="#f4f9fc"></path><path d="M165 727.3L240 784.2L195 708.3Z" fill="#3772f3" stroke="#f4f9fc"></path><path d="M248 851.2L227 980.1L312 942.1Z" fill="#8bc5fd" stroke="#f4f9fc"></path><path d="M1484 759.3L1502 736.3L1433 746.2Z" fill="#529efc" stroke="#f4f9fc"></path><path d="M240 784.2L165 727.3L153 776.2Z" fill="#6db2fd" stroke="#f4f9fc"></path><path d="M152 669.3L165 727.3L195 708.3Z" fill="#3e89f9" stroke="#f4f9fc"></path><path d="M96 319.7L110 400.7L122 370.6Z" fill="#6db2fd" stroke="#f4f9fc"></path><path d="M122 370.6L110 400.7L190 454.6Z" fill="#f4f9fc" stroke="#f4f9fc"></path><path d="M1600 397.6L1559 330.7L1490 427.5Z" fill="#4f3cdd" stroke="#f4f9fc"></path><path d="M1489 309.7L1600 215.7L1439 159.8Z" fill="#3772f3" stroke="#f4f9fc"></path><path d="M1600 397.6L1490 427.5L1608 450.6Z" fill="#f4f9fc" stroke="#f4f9fc"></path><path d="M281 -1.1L221 31.9L301 114.8Z" fill="#acd8fc" stroke="#f4f9fc"></path><path d="M110 400.7L103 534.5L169 485.5Z" fill="#f4f9fc" stroke="#f4f9fc"></path><path d="M124 571.5L103 677.4L152 669.3Z" fill="#529efc" stroke="#f4f9fc"></path><path d="M1371 1000L1377 967.1L1325 928.2Z" fill="#acd8fc" stroke="#f4f9fc"></path><path d="M1325 928.2L1377 967.1L1386 864.1Z" fill="#f4f9fc" stroke="#f4f9fc"></path><path d="M1410 851.2L1541 761.2L1484 759.3Z" fill="#6db2fd" stroke="#f4f9fc"></path><path d="M1484 759.3L1541 761.2L1502 736.3Z" fill="#529efc" stroke="#f4f9fc"></path><path d="M258 0L221 31.9L281 -1.1Z" fill="#3f59ea" stroke="#f4f9fc"></path><path d="M162 229.7L96 319.7L122 370.6Z" fill="#529efc" stroke="#f4f9fc"></path><path d="M168 71.8L152 154.9L301 114.8Z" fill="#8bc5fd" stroke="#f4f9fc"></path><path d="M153 776.2L165 727.3L103 677.4Z" fill="#8bc5fd" stroke="#f4f9fc"></path><path d="M153 776.2L170 802.2L240 784.2Z" fill="#3772f3" stroke="#f4f9fc"></path><path d="M226 841.2L227 980.1L248 851.2Z" fill="#3e89f9" stroke="#f4f9fc"></path><path d="M122 186.8L96 319.7L162 229.7Z" fill="#3772f3" stroke="#f4f9fc"></path><path d="M0 519.5L62 625.4L103 534.5Z" fill="#3e89f9" stroke="#f4f9fc"></path><path d="M103 677.4L165 727.3L152 669.3Z" fill="#529efc" stroke="#f4f9fc"></path><path d="M1518 69.9L1464 38.9L1439 159.8Z" fill="#f4f9fc" stroke="#f4f9fc"></path><path d="M1439 159.8L1464 38.9L1380 119.8Z" fill="#4f3cdd" stroke="#f4f9fc"></path><path d="M1464 38.9L1440 0L1380 119.8Z" fill="#6db2fd" stroke="#f4f9fc"></path><path d="M1309 0L1440 0L1019 -17.1Z" fill="#cfe9fb" stroke="#f4f9fc"></path><path d="M107 164.8L122 186.8L152 154.9Z" fill="#3e89f9" stroke="#f4f9fc"></path><path d="M152 154.9L122 186.8L162 229.7Z" fill="#6000cb" stroke="#f4f9fc"></path><path d="M1138 1010.1L1371 1000L1207 1000Z" fill="#3f59ea" stroke="#f4f9fc"></path><path d="M1207 1000L1371 1000L1325 928.2Z" fill="#529efc" stroke="#f4f9fc"></path><path d="M1600 925.1L1541 761.2L1410 851.2Z" fill="#3772f3" stroke="#f4f9fc"></path><path d="M62 625.4L103 677.4L124 571.5Z" fill="#3f59ea" stroke="#f4f9fc"></path><path d="M62 625.4L124 571.5L103 534.5Z" fill="#f4f9fc" stroke="#f4f9fc"></path><path d="M1608 450.6L1490 427.5L1521 534.5Z" fill="#6db2fd" stroke="#f4f9fc"></path><path d="M1567 81.8L1518 69.9L1600 143.8Z" fill="#8bc5fd" stroke="#f4f9fc"></path><path d="M1521 534.5L1600 553.5L1600 538.4Z" fill="#f4f9fc" stroke="#f4f9fc"></path><path d="M1600 553.5L1504 597.5L1600 625.3Z" fill="#6db2fd" stroke="#f4f9fc"></path><path d="M1465 981.1L1386 864.1L1377 967.1Z" fill="#cfe9fb" stroke="#f4f9fc"></path><path d="M1502 736.3L1541 761.2L1504 723.2Z" fill="#3f59ea" stroke="#f4f9fc"></path><path d="M1600 553.5L1521 534.5L1504 597.5Z" fill="#3f59ea" stroke="#f4f9fc"></path><path d="M157 0L168 71.8L221 31.9Z" fill="#6db2fd" stroke="#f4f9fc"></path><path d="M221 31.9L168 71.8L301 114.8Z" fill="#529efc" stroke="#f4f9fc"></path><path d="M1600 625.3L1471 663.4L1504 723.2Z" fill="#6db2fd" stroke="#f4f9fc"></path><path d="M1600 526.5L1608 450.6L1521 534.5Z" fill="#f4f9fc" stroke="#f4f9fc"></path><path d="M1600 538.4L1608 450.6L1600 526.5Z" fill="#3772f3" stroke="#f4f9fc"></path><path d="M1600 553.5L1608 450.6L1600 538.4Z" fill="#3772f3" stroke="#f4f9fc"></path><path d="M281 -1.1L208 0L258 0Z" fill="#6db2fd" stroke="#f4f9fc"></path><path d="M258 0L208 0L221 31.9Z" fill="#3772f3" stroke="#f4f9fc"></path><path d="M157 0L208 0L281 -1.1Z" fill="#6db2fd" stroke="#f4f9fc"></path><path d="M1600 738.2L1600 625.3L1504 723.2Z" fill="#3e89f9" stroke="#f4f9fc"></path><path d="M1600 553.5L1600 625.3L1608 450.6Z" fill="#cfe9fb" stroke="#f4f9fc"></path><path d="M1600 215.7L1489 309.7L1559 330.7Z" fill="#cfe9fb" stroke="#f4f9fc"></path><path d="M1464 38.9L1581 0L1440 0Z" fill="#f4f9fc" stroke="#f4f9fc"></path><path d="M14 80.8L107 164.8L168 71.8Z" fill="#3e89f9" stroke="#f4f9fc"></path><path d="M168 71.8L107 164.8L152 154.9Z" fill="#3e89f9" stroke="#f4f9fc"></path><path d="M122 186.8L0 309.8L96 319.7Z" fill="#6000cb" stroke="#f4f9fc"></path><path d="M44 427.6L110 400.7L0 381.6Z" fill="#6db2fd" stroke="#f4f9fc"></path><path d="M44 427.6L103 534.5L110 400.7Z" fill="#8bc5fd" stroke="#f4f9fc"></path><path d="M103 677.4L0 757.2L153 776.2Z" fill="#3772f3" stroke="#f4f9fc"></path><path d="M0 458.5L44 427.6L0 396.5Z" fill="#6db2fd" stroke="#f4f9fc"></path><path d="M1600 397.6L1600 215.7L1559 330.7Z" fill="#cfe9fb" stroke="#f4f9fc"></path><path d="M1608 450.6L1600 215.7L1600 397.6Z" fill="#cfe9fb" stroke="#f4f9fc"></path><path d="M206 998.1L227 980.1L72 891.1Z" fill="#8bc5fd" stroke="#f4f9fc"></path><path d="M312 942.1L227 980.1L377 1000Z" fill="#acd8fc" stroke="#f4f9fc"></path><path d="M212 1000L227 980.1L206 998.1Z" fill="#3f59ea" stroke="#f4f9fc"></path><path d="M226 841.2L72 891.1L227 980.1Z" fill="#3772f3" stroke="#f4f9fc"></path><path d="M1600 757.2L1600 738.2L1541 761.2Z" fill="#3f59ea" stroke="#f4f9fc"></path><path d="M1541 761.2L1600 738.2L1504 723.2Z" fill="#f4f9fc" stroke="#f4f9fc"></path><path d="M1600 625.3L1600 738.2L1608 450.6Z" fill="#f4f9fc" stroke="#f4f9fc"></path><path d="M208 0L157 0L221 31.9Z" fill="#8bc5fd" stroke="#f4f9fc"></path><path d="M0 0L157 0L281 -1.1Z" fill="#529efc" stroke="#f4f9fc"></path><path d="M1371 1000L1465 981.1L1377 967.1Z" fill="#3e89f9" stroke="#f4f9fc"></path><path d="M1600 925.1L1600 757.2L1541 761.2Z" fill="#3e89f9" stroke="#f4f9fc"></path><path d="M1600 738.2L1600 757.2L1608 450.6Z" fill="#6000cb" stroke="#f4f9fc"></path><path d="M1600 143.8L1518 69.9L1439 159.8Z" fill="#3772f3" stroke="#f4f9fc"></path><path d="M1518 69.9L1581 0L1464 38.9Z" fill="#4f3cdd" stroke="#f4f9fc"></path><path d="M1608 450.6L1600 143.8L1600 215.7Z" fill="#3772f3" stroke="#f4f9fc"></path><path d="M1600 215.7L1600 143.8L1439 159.8Z" fill="#3772f3" stroke="#f4f9fc"></path><path d="M1608 450.6L1600 141.9L1600 143.8Z" fill="#3e89f9" stroke="#f4f9fc"></path><path d="M1600 143.8L1600 141.9L1567 81.8Z" fill="#f4f9fc" stroke="#f4f9fc"></path><path d="M226 841.2L170 802.2L72 891.1Z" fill="#529efc" stroke="#f4f9fc"></path><path d="M227 980.1L212 1000L377 1000Z" fill="#4f3cdd" stroke="#f4f9fc"></path><path d="M377 1000L212 1000L1138 1010.1Z" fill="#6000cb" stroke="#f4f9fc"></path><path d="M72 891.1L170 802.2L153 776.2Z" fill="#3f59ea" stroke="#f4f9fc"></path><path d="M44 427.6L0 519.5L103 534.5Z" fill="#3f59ea" stroke="#f4f9fc"></path><path d="M0 396.5L44 427.6L0 381.6Z" fill="#6000cb" stroke="#f4f9fc"></path><path d="M110 400.7L96 319.7L0 381.6Z" fill="#3e89f9" stroke="#f4f9fc"></path><path d="M0 381.6L96 319.7L0 349.7Z" fill="#3772f3" stroke="#f4f9fc"></path><path d="M0 458.5L0 519.5L44 427.6Z" fill="#529efc" stroke="#f4f9fc"></path><path d="M62 625.4L0 656.4L103 677.4Z" fill="#4f3cdd" stroke="#f4f9fc"></path><path d="M0 349.7L96 319.7L0 309.8Z" fill="#4f3cdd" stroke="#f4f9fc"></path><path d="M0 309.8L122 186.8L107 164.8Z" fill="#3e89f9" stroke="#f4f9fc"></path><path d="M1371 1000L1485 1000L1465 981.1Z" fill="#f4f9fc" stroke="#f4f9fc"></path><path d="M1465 981.1L1600 925.1L1410 851.2Z" fill="#529efc" stroke="#f4f9fc"></path><path d="M1138 1010.1L1485 1000L1371 1000Z" fill="#3772f3" stroke="#f4f9fc"></path><path d="M0 132.9L0 309.8L107 164.8Z" fill="#acd8fc" stroke="#f4f9fc"></path><path d="M0 519.5L0 608.3L62 625.4Z" fill="#cfe9fb" stroke="#f4f9fc"></path><path d="M1608 450.6L1600 81.8L1600 141.9Z" fill="#4f3cdd" stroke="#f4f9fc"></path><path d="M1600 141.9L1600 81.8L1567 81.8Z" fill="#3f59ea" stroke="#f4f9fc"></path><path d="M1567 81.8L1581 0L1518 69.9Z" fill="#529efc" stroke="#f4f9fc"></path><path d="M0 608.3L0 656.4L62 625.4Z" fill="#6000cb" stroke="#f4f9fc"></path><path d="M1600 81.8L1581 0L1567 81.8Z" fill="#529efc" stroke="#f4f9fc"></path><path d="M1440 0L1581 0L1019 -17.1Z" fill="#3772f3" stroke="#f4f9fc"></path><path d="M0 656.4L0 723.2L103 677.4Z" fill="#3e89f9" stroke="#f4f9fc"></path><path d="M0 757.2L72 891.1L153 776.2Z" fill="#cfe9fb" stroke="#f4f9fc"></path><path d="M157 0L81 2.9L168 71.8Z" fill="#cfe9fb" stroke="#f4f9fc"></path><path d="M0 723.2L0 757.2L103 677.4Z" fill="#8bc5fd" stroke="#f4f9fc"></path><path d="M1608 450.6L1600 0L1600 81.8Z" fill="#3772f3" stroke="#f4f9fc"></path><path d="M1600 81.8L1600 0L1581 0Z" fill="#6000cb" stroke="#f4f9fc"></path><path d="M1581 0L1600 0L1019 -17.1Z" fill="#529efc" stroke="#f4f9fc"></path><path d="M14 80.8L0 132.9L107 164.8Z" fill="#529efc" stroke="#f4f9fc"></path><path d="M1563 1000L1600 925.1L1465 981.1Z" fill="#6db2fd" stroke="#f4f9fc"></path><path d="M1600 757.2L1600 925.1L1608 450.6Z" fill="#3f59ea" stroke="#f4f9fc"></path><path d="M0 757.2L61 920.2L72 891.1Z" fill="#3772f3" stroke="#f4f9fc"></path><path d="M72 891.1L102 1000L206 998.1Z" fill="#cfe9fb" stroke="#f4f9fc"></path><path d="M81 2.9L14 80.8L168 71.8Z" fill="#6db2fd" stroke="#f4f9fc"></path><path d="M1485 1000L1563 1000L1465 981.1Z" fill="#6000cb" stroke="#f4f9fc"></path><path d="M1138 1010.1L1563 1000L1485 1000Z" fill="#6db2fd" stroke="#f4f9fc"></path><path d="M61 920.2L102 1000L72 891.1Z" fill="#4f3cdd" stroke="#f4f9fc"></path><path d="M206 998.1L102 1000L212 1000Z" fill="#6000cb" stroke="#f4f9fc"></path><path d="M212 1000L102 1000L1138 1010.1Z" fill="#3772f3" stroke="#f4f9fc"></path><path d="M81 2.9L0 62.8L14 80.8Z" fill="#8bc5fd" stroke="#f4f9fc"></path><path d="M14 80.8L0 62.8L0 132.9Z" fill="#6db2fd" stroke="#f4f9fc"></path><path d="M1138 1010.1L1600 1000L1563 1000Z" fill="#acd8fc" stroke="#f4f9fc"></path><path d="M1563 1000L1600 1000L1600 925.1Z" fill="#cfe9fb" stroke="#f4f9fc"></path><path d="M1600 925.1L1600 1000L1608 450.6Z" fill="#f4f9fc" stroke="#f4f9fc"></path><path d="M157 0L0 0L81 2.9Z" fill="#acd8fc" stroke="#f4f9fc"></path><path d="M81 2.9L0 0L0 62.8Z" fill="#4f3cdd" stroke="#f4f9fc"></path><path d="M1019 -17.1L0 0L281 -1.1Z" fill="#6000cb" stroke="#f4f9fc"></path><path d="M0 993.1L54 1000L61 920.2Z" fill="#acd8fc" stroke="#f4f9fc"></path><path d="M61 920.2L54 1000L102 1000Z" fill="#8bc5fd" stroke="#f4f9fc"></path><path d="M102 1000L54 1000L1138 1010.1Z" fill="#f4f9fc" stroke="#f4f9fc"></path><path d="M0 757.2L0 993.1L61 920.2Z" fill="#cfe9fb" stroke="#f4f9fc"></path><path d="M0 993.1L0 1000L54 1000Z" fill="#6db2fd" stroke="#f4f9fc"></path><path d="M54 1000L0 1000L1138 1010.1Z" fill="#3772f3" stroke="#f4f9fc"></path></g></svg>