<svg id="visual" viewBox="0 0 1600 900" width="1600" height="900" xmlns="http://www.w3.org/2000/svg" xmlns:xlink="http://www.w3.org/1999/xlink" version="1.1"><path d="M0 118L20.5 119.5C41 121 82 124 123 124C164 124 205 121 246 121C287 121 328 124 369 122.5C410 121 451 115 492 112C533 109 574 109 615 115C656 121 697 133 738.2 134.5C779.3 136 820.7 127 861.8 127C903 127 944 136 985 134.5C1026 133 1067 121 1108 113.5C1149 106 1190 103 1231 110.5C1272 118 1313 136 1354 142C1395 148 1436 142 1477 136C1518 130 1559 124 1579.5 121L1600 118L1600 0L1579.5 0C1559 0 1518 0 1477 0C1436 0 1395 0 1354 0C1313 0 1272 0 1231 0C1190 0 1149 0 1108 0C1067 0 1026 0 985 0C944 0 903 0 861.8 0C820.7 0 779.3 0 738.2 0C697 0 656 0 615 0C574 0 533 0 492 0C451 0 410 0 369 0C328 0 287 0 246 0C205 0 164 0 123 0C82 0 41 0 20.5 0L0 0Z" fill="#f4f9fc"></path><path d="M0 361L20.5 359.5C41 358 82 355 123 358C164 361 205 370 246 364C287 358 328 337 369 332.5C410 328 451 340 492 344.5C533 349 574 346 615 347.5C656 349 697 355 738.2 350.5C779.3 346 820.7 331 861.8 331C903 331 944 346 985 341.5C1026 337 1067 313 1108 310C1149 307 1190 325 1231 341.5C1272 358 1313 373 1354 370C1395 367 1436 346 1477 331C1518 316 1559 307 1579.5 302.5L1600 298L1600 116L1579.5 119C1559 122 1518 128 1477 134C1436 140 1395 146 1354 140C1313 134 1272 116 1231 108.5C1190 101 1149 104 1108 111.5C1067 119 1026 131 985 132.5C944 134 903 125 861.8 125C820.7 125 779.3 134 738.2 132.5C697 131 656 119 615 113C574 107 533 107 492 110C451 113 410 119 369 120.5C328 122 287 119 246 119C205 119 164 122 123 122C82 122 41 119 20.5 117.5L0 116Z" fill="#dbeef7"></path><path d="M0 406L20.5 406C41 406 82 406 123 409C164 412 205 418 246 410.5C287 403 328 382 369 379C410 376 451 391 492 397C533 403 574 400 615 401.5C656 403 697 409 738.2 403C779.3 397 820.7 379 861.8 377.5C903 376 944 391 985 389.5C1026 388 1067 370 1108 368.5C1149 367 1190 382 1231 395.5C1272 409 1313 421 1354 418C1395 415 1436 397 1477 383.5C1518 370 1559 361 1579.5 356.5L1600 352L1600 296L1579.5 300.5C1559 305 1518 314 1477 329C1436 344 1395 365 1354 368C1313 371 1272 356 1231 339.5C1190 323 1149 305 1108 308C1067 311 1026 335 985 339.5C944 344 903 329 861.8 329C820.7 329 779.3 344 738.2 348.5C697 353 656 347 615 345.5C574 344 533 347 492 342.5C451 338 410 326 369 330.5C328 335 287 356 246 362C205 368 164 359 123 356C82 353 41 356 20.5 357.5L0 359Z" fill="#c1e4f1"></path><path d="M0 586L20.5 590.5C41 595 82 604 123 610C164 616 205 619 246 614.5C287 610 328 598 369 590.5C410 583 451 580 492 581.5C533 583 574 589 615 593.5C656 598 697 601 738.2 595C779.3 589 820.7 574 861.8 571C903 568 944 577 985 581.5C1026 586 1067 586 1108 584.5C1149 583 1190 580 1231 580C1272 580 1313 583 1354 587.5C1395 592 1436 598 1477 598C1518 598 1559 592 1579.5 589L1600 586L1600 350L1579.5 354.5C1559 359 1518 368 1477 381.5C1436 395 1395 413 1354 416C1313 419 1272 407 1231 393.5C1190 380 1149 365 1108 366.5C1067 368 1026 386 985 387.5C944 389 903 374 861.8 375.5C820.7 377 779.3 395 738.2 401C697 407 656 401 615 399.5C574 398 533 401 492 395C451 389 410 374 369 377C328 380 287 401 246 408.5C205 416 164 410 123 407C82 404 41 404 20.5 404L0 404Z" fill="#aadcec"></path><path d="M0 640L20.5 644.5C41 649 82 658 123 664C164 670 205 673 246 668.5C287 664 328 652 369 647.5C410 643 451 646 492 647.5C533 649 574 649 615 653.5C656 658 697 667 738.2 664C779.3 661 820.7 646 861.8 641.5C903 637 944 643 985 647.5C1026 652 1067 655 1108 653.5C1149 652 1190 646 1231 644.5C1272 643 1313 646 1354 649C1395 652 1436 655 1477 655C1518 655 1559 652 1579.5 650.5L1600 649L1600 584L1579.5 587C1559 590 1518 596 1477 596C1436 596 1395 590 1354 585.5C1313 581 1272 578 1231 578C1190 578 1149 581 1108 582.5C1067 584 1026 584 985 579.5C944 575 903 566 861.8 569C820.7 572 779.3 587 738.2 593C697 599 656 596 615 591.5C574 587 533 581 492 579.5C451 578 410 581 369 588.5C328 596 287 608 246 612.5C205 617 164 614 123 608C82 602 41 593 20.5 588.5L0 584Z" fill="#aadcec"></path><path d="M0 730L20.5 734.5C41 739 82 748 123 752.5C164 757 205 757 246 757C287 757 328 757 369 757C410 757 451 757 492 754C533 751 574 745 615 746.5C656 748 697 757 738.2 755.5C779.3 754 820.7 742 861.8 739C903 736 944 742 985 743.5C1026 745 1067 742 1108 740.5C1149 739 1190 739 1231 739C1272 739 1313 739 1354 742C1395 745 1436 751 1477 752.5C1518 754 1559 751 1579.5 749.5L1600 748L1600 647L1579.5 648.5C1559 650 1518 653 1477 653C1436 653 1395 650 1354 647C1313 644 1272 641 1231 642.5C1190 644 1149 650 1108 651.5C1067 653 1026 650 985 645.5C944 641 903 635 861.8 639.5C820.7 644 779.3 659 738.2 662C697 665 656 656 615 651.5C574 647 533 647 492 645.5C451 644 410 641 369 645.5C328 650 287 662 246 666.5C205 671 164 668 123 662C82 656 41 647 20.5 642.5L0 638Z" fill="#c1e4f1"></path><path d="M0 811L20.5 815.5C41 820 82 829 123 830.5C164 832 205 826 246 824.5C287 823 328 826 369 829C410 832 451 835 492 830.5C533 826 574 814 615 811C656 808 697 814 738.2 815.5C779.3 817 820.7 814 861.8 815.5C903 817 944 823 985 824.5C1026 826 1067 823 1108 818.5C1149 814 1190 808 1231 808C1272 808 1313 814 1354 817C1395 820 1436 820 1477 818.5C1518 817 1559 814 1579.5 812.5L1600 811L1600 746L1579.5 747.5C1559 749 1518 752 1477 750.5C1436 749 1395 743 1354 740C1313 737 1272 737 1231 737C1190 737 1149 737 1108 738.5C1067 740 1026 743 985 741.5C944 740 903 734 861.8 737C820.7 740 779.3 752 738.2 753.5C697 755 656 746 615 744.5C574 743 533 749 492 752C451 755 410 755 369 755C328 755 287 755 246 755C205 755 164 755 123 750.5C82 746 41 737 20.5 732.5L0 728Z" fill="#dbeef7"></path><path d="M0 901L20.5 901C41 901 82 901 123 901C164 901 205 901 246 901C287 901 328 901 369 901C410 901 451 901 492 901C533 901 574 901 615 901C656 901 697 901 738.2 901C779.3 901 820.7 901 861.8 901C903 901 944 901 985 901C1026 901 1067 901 1108 901C1149 901 1190 901 1231 901C1272 901 1313 901 1354 901C1395 901 1436 901 1477 901C1518 901 1559 901 1579.5 901L1600 901L1600 809L1579.5 810.5C1559 812 1518 815 1477 816.5C1436 818 1395 818 1354 815C1313 812 1272 806 1231 806C1190 806 1149 812 1108 816.5C1067 821 1026 824 985 822.5C944 821 903 815 861.8 813.5C820.7 812 779.3 815 738.2 813.5C697 812 656 806 615 809C574 812 533 824 492 828.5C451 833 410 830 369 827C328 824 287 821 246 822.5C205 824 164 830 123 828.5C82 827 41 818 20.5 813.5L0 809Z" fill="#f4f9fc"></path></svg>